<svg width="1024" height="1024" viewBox="0 0 1024 1024" fill="none" xmlns="http://www.w3.org/2000/svg">
<path d="M84 1024C84 919.53 84 867.295 103.035 826.844C122.851 784.733 156.733 750.851 198.844 731.035C239.295 712 291.53 712 396 712H627C731.47 712 783.705 712 824.156 731.035C866.267 750.851 900.149 784.733 919.965 826.844C939 867.295 939 919.53 939 1024V1024H84V1024Z" fill="#013244"/>
<path d="M239 289C239 228.249 288.249 179 349 179H675C735.751 179 785 228.249 785 289V692C785 752.751 735.751 802 675 802H349C288.249 802 239 752.751 239 692V289Z" fill="#FFCBA4"/>
<path d="M239 591H785V692C785 752.751 735.751 802 675 802H349C288.249 802 239 752.751 239 692V591Z" fill="#E4B38E"/>
<path d="M310 607C310 557.294 350.294 517 400 517H626C675.706 517 716 557.294 716 607V685H310V607Z" fill="#E4B38E"/>
<path d="M283 445.5C283 481.675 253.675 511 217.5 511C181.325 511 152 481.675 152 445.5C152 409.325 181.325 380 217.5 380C253.675 380 283 409.325 283 445.5Z" fill="#FFCBA4"/>
<path d="M872 445.5C872 481.675 842.675 511 806.5 511C770.325 511 741 481.675 741 445.5C741 409.325 770.325 380 806.5 380C842.675 380 872 409.325 872 445.5Z" fill="#FFCBA4"/>
<rect x="399" y="725" width="117" height="98" rx="40" fill="#E4B38E"/>
<rect x="508" y="725" width="117" height="98" rx="40" fill="#E4B38E"/>
<rect x="466" y="407" width="92" height="165" rx="40" fill="#EB8876"/>
<path d="M512 134C591.157 134 659.463 152.887 691.151 180.18C744.245 187.992 785 233.736 785 289V448H775C763.954 448 755 439.046 755 428V319C755 294.509 746.996 271.889 733.461 253.61C722.166 238.356 698.488 244.373 682.885 255.183C648.502 279.005 584.846 295 512 295C439.154 295 375.498 279.005 341.114 255.183C325.512 244.373 301.833 238.356 290.538 253.611C277.004 271.89 269 294.51 269 319V428C269 439.046 260.046 448 249 448H239V289C239 233.736 279.754 187.993 332.848 180.18C364.536 152.887 432.843 134 512 134Z" fill="#393939"/>
<path d="M239 247.5V307L318 190L711.436 220V185.5C711.436 131.376 667.56 87.5 613.436 87.5H399C310.634 87.5 239 159.134 239 247.5Z" fill="#393939"/>
<rect x="330" y="346" width="120" height="150" rx="60" fill="white"/>
<rect x="574" y="346" width="120" height="150" rx="60" fill="white"/>
<path d="M624 384C622.371 384 620.771 384.123 619.207 384.357C622.542 387.931 624.583 392.727 624.583 398C624.583 409.046 615.629 418 604.583 418C599.855 418 595.512 416.358 592.089 413.615C592.031 414.403 592 415.198 592 416V436C592 453.673 606.327 468 624 468C641.673 468 656 453.673 656 436V416C656 398.327 641.673 384 624 384Z" fill="black"/>
<path d="M400 384C398.371 384 396.771 384.123 395.207 384.357C398.542 387.931 400.583 392.727 400.583 398C400.583 409.046 391.629 418 380.583 418C375.855 418 371.512 416.358 368.089 413.615C368.031 414.403 368 415.198 368 416V436C368 453.673 382.327 468 400 468C417.673 468 432 453.673 432 436V416C432 398.327 417.673 384 400 384Z" fill="black"/>
<rect x="384" y="606" width="256" height="86" rx="43" fill="#FFCBA4"/>
<rect x="427" y="644" width="182" height="13" rx="6.5" fill="#B88B6A"/>
</svg>
