<svg width="120" height="120" viewBox="0 0 120 120" fill="none" xmlns="http://www.w3.org/2000/svg">
<g clip-path="url(#clip0_3704_25678)">
<rect width="120" height="120" rx="60" fill="#F2F2F7"/>
<ellipse cx="24.4922" cy="46.875" rx="14.5312" ry="14.2969" fill="#FBE063"/>
<ellipse cx="28.4766" cy="118.359" rx="14.5312" ry="14.2969" fill="#FBE063"/>
<ellipse cx="91.9922" cy="118.359" rx="14.5312" ry="14.2969" fill="#FBE063"/>
<ellipse cx="93.2812" cy="46.875" rx="14.5312" ry="14.2969" fill="#FBE063"/>
<ellipse cx="35.6836" cy="72.3047" rx="24.668" ry="24.2578" fill="#FBE063"/>
<ellipse cx="42.3633" cy="97.6172" rx="24.668" ry="24.2578" fill="#FBE063"/>
<ellipse cx="83.1445" cy="72.3047" rx="24.668" ry="24.2578" fill="#FBE063"/>
<ellipse cx="76.582" cy="97.6172" rx="24.668" ry="24.2578" fill="#FBE063"/>
<path d="M33.0469 54.5508C33.0469 58.1428 30.135 61.0547 26.543 61.0547C22.951 61.0547 20.0391 58.1428 20.0391 54.5508C20.0391 50.9588 22.951 48.0469 26.543 48.0469C30.135 48.0469 33.0469 50.9588 33.0469 54.5508Z" fill="#F7BBB0"/>
<path d="M99.9609 54.5508C99.9609 58.1428 97.049 61.0547 93.457 61.0547C89.865 61.0547 86.9531 58.1428 86.9531 54.5508C86.9531 50.9588 89.865 48.0469 93.457 48.0469C97.049 48.0469 99.9609 50.9588 99.9609 54.5508Z" fill="#F7BBB0"/>
<path d="M28.0078 39.2295C28.0078 33.8733 31.6805 29.5312 36.2109 29.5312H83.7891C88.3195 29.5312 91.9922 33.8733 91.9922 39.2295V76.083C91.9922 81.4392 88.3195 85.7813 83.7891 85.7813H36.2109C31.6805 85.7813 28.0078 81.4392 28.0078 76.083V39.2295Z" fill="#F7BBB0"/>
<ellipse cx="43.0078" cy="32.5781" rx="20.2734" ry="14.2969" fill="#FBE063"/>
<ellipse cx="78.8086" cy="32.5781" rx="16.8164" ry="11.8359" fill="#FBE063"/>
<rect x="28.0078" y="34.8047" width="8.4375" height="17.8125" rx="4.21875" fill="#FBE063"/>
<rect x="83.5547" y="34.8047" width="8.4375" height="17.8125" rx="4.21875" fill="#FBE063"/>
<rect x="45.4688" y="85.7812" width="29.0625" height="14.8828" fill="#C07FC6"/>
<path d="M36.4453 104.883C36.4453 98.4107 41.692 93.1641 48.1641 93.1641H71.8359C78.308 93.1641 83.5547 98.4107 83.5547 104.883V120H36.4453V104.883Z" fill="#C07FC6"/>
<rect x="42.1875" y="49.4531" width="13.125" height="16.4062" rx="6.5625" fill="white"/>
<rect x="64.6875" y="49.4531" width="13.125" height="16.4062" rx="6.5625" fill="white"/>
<path d="M49.7461 53.5547C49.65 53.5547 49.5549 53.5591 49.4609 53.5674C49.6763 53.8591 49.8047 54.219 49.8047 54.6094C49.8047 55.5802 49.0177 56.3672 48.0469 56.3672C47.5043 56.3672 47.0197 56.1208 46.6973 55.7344C46.5853 56.0616 46.5234 56.4122 46.5234 56.7773V60.1758C46.5234 61.9556 47.9663 63.3984 49.7461 63.3984C51.5259 63.3984 52.9687 61.9556 52.9688 60.1758V56.7773C52.9687 54.9975 51.5259 53.5547 49.7461 53.5547Z" fill="black"/>
<path d="M72.2461 53.5547C72.15 53.5547 72.0549 53.5591 71.9609 53.5674C72.1763 53.8591 72.3047 54.219 72.3047 54.6094C72.3047 55.5802 71.5177 56.3672 70.5469 56.3672C70.0043 56.3672 69.5197 56.1208 69.1973 55.7344C69.0853 56.0616 69.0234 56.4122 69.0234 56.7773V60.1758C69.0234 61.9556 70.4663 63.3984 72.2461 63.3984C74.0259 63.3984 75.4687 61.9556 75.4688 60.1758V56.7773C75.4687 54.9975 74.0259 53.5547 72.2461 53.5547Z" fill="black"/>
<ellipse cx="50.5664" cy="67.5" rx="10.7227" ry="6.44531" fill="#F7BBB0"/>
<ellipse cx="69.4922" cy="67.6758" rx="11.0156" ry="6.62109" fill="#F7BBB0"/>
<path d="M69.0234 69.2578C70.3179 69.2578 71.3915 70.3181 71.1264 71.5851C70.6773 73.7321 69.6124 75.7211 68.0378 77.2956C65.9061 79.4274 63.0148 80.625 60 80.625C56.9852 80.625 54.0939 79.4274 51.9622 77.2956C50.3876 75.7211 49.3227 73.7321 48.8736 71.5851C48.6085 70.3181 49.6821 69.2578 50.9766 69.2578L60 69.2578H69.0234Z" fill="#B62F2F"/>
<path d="M69.0234 69.2578C70.3178 69.2578 71.3914 70.3181 71.1264 71.5851C71.0394 72.001 70.9293 72.4109 70.7969 72.8131C70.515 73.669 69.6732 74.1797 68.772 74.1797H51.228C50.3268 74.1797 49.485 73.669 49.2031 72.8131C49.0707 72.4109 48.9606 72.001 48.8736 71.5851C48.6085 70.3181 49.6821 69.2578 50.9765 69.2578H69.0234Z" fill="white"/>
<path d="M61.9565 76.4329C64.464 75.5971 66.9467 75.8723 68.3394 76.9797C68.2407 77.0863 68.1407 77.1921 68.0376 77.2952C65.9058 79.4269 63.0143 80.6243 59.9995 80.6243C59.0849 80.6243 58.1822 80.5121 57.3081 80.2991C57.9155 78.7179 59.644 77.2038 61.9565 76.4329Z" fill="#FB4B50"/>
<rect x="57.6562" y="60.9375" width="4.6875" height="6.5625" rx="2.34375" fill="#F98F7B"/>
</g>
<defs>
<clipPath id="clip0_3704_25678">
<rect width="120" height="120" rx="60" fill="white"/>
</clipPath>
</defs>
</svg>
