<svg width="120" height="120" viewBox="0 0 120 120" fill="none" xmlns="http://www.w3.org/2000/svg">
<g clip-path="url(#clip0_3704_25576)">
<rect width="120" height="120" rx="60" fill="#F2F2F7"/>
<path d="M28.0078 40.8984C28.0078 25.3654 40.5998 12.7734 56.1328 12.7734H63.8672C79.4002 12.7734 91.9922 25.3654 91.9922 40.8984V120H28.0078V40.8984Z" fill="#F7BBB0"/>
<path d="M33.1641 53.3789C33.1641 57.6181 29.7275 61.0547 25.4883 61.0547C21.2491 61.0547 17.8125 57.6181 17.8125 53.3789C17.8125 49.1397 21.2491 45.7031 25.4883 45.7031C29.7275 45.7031 33.1641 49.1397 33.1641 53.3789Z" fill="#F7BBB0"/>
<path d="M102.187 53.3789C102.187 57.6181 98.7509 61.0547 94.5117 61.0547C90.2725 61.0547 86.8359 57.6181 86.8359 53.3789C86.8359 49.1397 90.2725 45.7031 94.5117 45.7031C98.7509 45.7031 102.187 49.1397 102.187 53.3789Z" fill="#F7BBB0"/>
<path d="M65.7422 65.5078C67.1013 65.5078 68.2384 66.6336 67.8367 67.9321C67.4461 69.1948 66.7523 70.3565 65.8005 71.3083C64.2621 72.8467 62.1756 73.7109 60 73.7109C57.8244 73.7109 55.7379 72.8467 54.1995 71.3083C53.2477 70.3565 52.5539 69.1948 52.1633 67.9321C51.7616 66.6336 52.8987 65.5078 54.2578 65.5078L60 65.5078H65.7422Z" fill="white"/>
<path d="M15.1172 106.875C15.1172 97.1669 22.9872 89.2969 32.6953 89.2969H87.1875C96.8956 89.2969 104.766 97.1669 104.766 106.875V120H15.1172V106.875Z" fill="#78BEFF"/>
<path d="M45.7031 66.9141C45.7031 63.678 48.3265 61.0547 51.5625 61.0547H68.5547C71.7907 61.0547 74.4141 63.678 74.4141 66.9141V68.2031C74.4141 68.8503 73.8894 69.375 73.2422 69.375H46.875C46.2278 69.375 45.7031 68.8503 45.7031 68.2031V66.9141Z" fill="#82777B"/>
<rect x="51.0938" y="47.5781" width="6.32812" height="2.92969" fill="#F7BBB0"/>
<rect x="62.5781" y="47.5781" width="6.32812" height="2.92969" fill="#F7BBB0"/>
<rect x="28.0078" y="29.1797" width="5.85938" height="21.7969" rx="2.92969" fill="#82777B"/>
<rect x="86.1328" y="29.1797" width="5.85938" height="21.7969" rx="2.92969" fill="#82777B"/>
<rect x="51.6797" y="94.5352" width="11.7188" height="11.7188" rx="3.51562" transform="rotate(-45 51.6797 94.5352)" fill="#64ABED"/>
<path d="M24.6094 91.3267C24.6094 89.1701 26.3576 87.4219 28.5142 87.4219H60V91.5234L45.7909 96.9563C44.6579 97.3895 43.4321 97.5223 42.2327 97.3416L27.9327 95.188C26.0222 94.9003 24.6094 93.2587 24.6094 91.3267Z" fill="#BADEFF"/>
<path d="M95.3906 91.3267C95.3906 89.1701 93.6424 87.4219 91.4858 87.4219H60V91.5234L74.2091 96.9563C75.3421 97.3895 76.5679 97.5223 77.7673 97.3416L92.0673 95.188C93.9778 94.9003 95.3906 93.2587 95.3906 91.3267Z" fill="#BADEFF"/>
<path d="M58.4018 99.375H61.539L65.5078 120H54.375L58.4018 99.375Z" fill="#64ABED"/>
<path d="M28.0078 39.3164C28.0078 37.4719 29.5031 35.9766 31.3477 35.9766H40.1953V42.6562H31.3477C29.5031 42.6562 28.0078 41.161 28.0078 39.3164V39.3164Z" fill="black"/>
<path d="M78.6328 35.9766H88.6523C90.4969 35.9766 91.9922 37.4719 91.9922 39.3164V39.3164C91.9922 41.161 90.4969 42.6562 88.6523 42.6562H78.6328V35.9766Z" fill="black"/>
<path d="M34.6875 43.0078C34.6875 39.7718 37.3108 37.1484 40.5469 37.1484H49.9219C53.1579 37.1484 55.7812 39.7718 55.7812 43.0078V50.1563C55.7812 55.3339 51.5839 59.5312 46.4062 59.5312H44.0625C38.8848 59.5312 34.6875 55.3339 34.6875 50.1563V43.0078Z" fill="white" stroke="black" stroke-width="2.34375"/>
<path d="M47.3774 42.5391C47.24 42.5391 47.1037 42.5458 46.9692 42.5576C47.2768 42.9743 47.4604 43.4883 47.4604 44.0459C47.4604 45.4326 46.3364 46.5574 44.9497 46.5576C44.1744 46.5576 43.4816 46.2055 43.021 45.6533C42.8613 46.1206 42.773 46.6212 42.7729 47.1426V51.998C42.7731 54.5405 44.8349 56.6016 47.3774 56.6016C49.9198 56.6014 51.9808 54.5404 51.981 51.998V47.1426C51.9808 44.6002 49.9198 42.5392 47.3774 42.5391Z" fill="black"/>
<path d="M64.2188 43.0078C64.2188 39.7718 66.8421 37.1484 70.0781 37.1484H79.4531C82.6892 37.1484 85.3125 39.7718 85.3125 43.0078V50.1563C85.3125 55.3339 81.1152 59.5312 75.9375 59.5312H73.5937C68.4161 59.5312 64.2188 55.3339 64.2188 50.1563V43.0078Z" fill="white" stroke="black" stroke-width="2.34375"/>
<path d="M76.9087 42.5391C76.7712 42.5391 76.6349 42.5458 76.5005 42.5576C76.8081 42.9743 76.9916 43.4883 76.9917 44.0459C76.9917 45.4326 75.8676 46.5574 74.481 46.5576C73.7057 46.5576 73.0129 46.2055 72.5522 45.6533C72.3925 46.1206 72.3042 46.6212 72.3042 47.1426V51.998C72.3044 54.5405 74.3662 56.6016 76.9087 56.6016C79.4511 56.6014 81.5121 54.5404 81.5122 51.998V47.1426C81.5121 44.6002 79.4511 42.5392 76.9087 42.5391Z" fill="black"/>
<rect x="56.3672" y="44.0625" width="7.61719" height="5.50781" fill="black"/>
<rect x="56.6016" y="46.5234" width="6.79688" height="10.8984" rx="3.39844" fill="#EB8876"/>
</g>
<defs>
<clipPath id="clip0_3704_25576">
<rect width="120" height="120" rx="60" fill="white"/>
</clipPath>
</defs>
</svg>
