<svg width="120" height="120" viewBox="0 0 120 120" fill="none" xmlns="http://www.w3.org/2000/svg">
<g clip-path="url(#clip0_3704_25605)">
<rect width="120" height="120" rx="60" fill="#F2F2F7"/>
<rect x="14.5312" y="69.9609" width="91.2891" height="20.5078" rx="10.2539" fill="#D9D9D9"/>
<path d="M9.84375 114.492C9.84375 101.366 9.84375 94.8028 12.3983 89.7893C14.6453 85.3792 18.2308 81.7938 22.6408 79.5467C27.6544 76.9922 34.2175 76.9922 47.3438 76.9922H72.5391C85.6653 76.9922 92.2284 76.9922 97.242 79.5467C101.652 81.7938 105.237 85.3792 107.485 89.7893C110.039 94.8028 110.039 101.366 110.039 114.492V120H9.84375V114.492Z" fill="#D9D9D9"/>
<path d="M50.625 91.4062C50.625 91.4062 52.9102 97.3242 53.3789 101.426C53.8477 105.527 50.625 112.617 50.625 112.617" stroke="white" stroke-width="3.51562" stroke-linecap="round"/>
<path d="M66.3021 88.7109C66.3021 88.7109 65.8333 99.2578 66.3021 103.359C66.7708 107.461 68.1185 110.039 68.1185 110.039" stroke="white" stroke-width="3.51562" stroke-linecap="round"/>
<path d="M33.8673 52.8516C33.8673 56.7348 30.7193 59.8828 26.8361 59.8828C22.9528 59.8828 19.8048 56.7348 19.8048 52.8516C19.8048 48.9683 22.9528 45.8203 26.8361 45.8203C30.7193 45.8203 33.8673 48.9683 33.8673 52.8516Z" fill="#F7BBB0"/>
<path d="M100.195 52.8516C100.195 56.7348 97.0474 59.8828 93.1642 59.8828C89.2809 59.8828 86.1329 56.7348 86.1329 52.8516C86.1329 48.9683 89.2809 45.8203 93.1642 45.8203C97.0474 45.8203 100.195 48.9683 100.195 52.8516Z" fill="#F7BBB0"/>
<path d="M18.1969 14.3296C23.1624 9.3641 31.2127 9.3641 36.1781 14.3296L55.4555 33.6069L37.4743 51.5881L18.1969 32.3107C13.2315 27.3453 13.2315 19.295 18.1969 14.3296Z" fill="#5F220F"/>
<path d="M41.4142 14.5784C43.977 12.0155 48.1327 12.0155 50.6956 14.5784L69.9729 33.8557L60.6915 43.1371L41.4142 23.8597C38.8514 21.2969 38.8514 17.1412 41.4142 14.5784Z" fill="#5F220F"/>
<path d="M56.1798 14.5784C58.7426 12.0155 62.8984 12.0155 65.4612 14.5784L84.7385 33.8557L75.4571 43.1371L56.1798 23.8597C53.617 21.2969 53.617 17.1412 56.1798 14.5784Z" fill="#5F220F"/>
<path d="M28.0079 32.3438C28.0079 27.8133 31.6806 24.1406 36.2111 24.1406H83.7892C88.3196 24.1406 91.9923 27.8133 91.9923 32.3438V43.8281H28.0079V32.3438Z" fill="#5F220F"/>
<path d="M28.0079 38.9062C28.0079 34.3758 31.6806 30.7031 36.2111 30.7031H83.7892C88.3196 30.7031 91.9923 34.3758 91.9923 38.9062V70.0781C91.9923 74.6086 88.3196 78.2812 83.7892 78.2812H36.2111C31.6806 78.2812 28.0079 74.6086 28.0079 70.0781V38.9062Z" fill="#F7BBB0"/>
<rect x="40.3126" y="43.0078" width="13.125" height="16.4062" rx="6.5625" fill="white"/>
<rect x="66.4454" y="43.0078" width="13.125" height="16.4062" rx="6.5625" fill="white"/>
<path d="M71.7775 47.1094C71.6814 47.1094 71.5863 47.1138 71.4923 47.1221C71.7076 47.4138 71.8361 47.7736 71.8361 48.1641C71.8361 49.1349 71.0491 49.9219 70.0782 49.9219C69.5356 49.9219 69.0511 49.6755 68.7286 49.2891C68.6167 49.6163 68.5548 49.9669 68.5548 50.332V53.7305C68.5548 55.5103 69.9976 56.9531 71.7775 56.9531C73.5573 56.9531 75.0001 55.5103 75.0001 53.7305V50.332C75.0001 48.5522 73.5573 47.1094 71.7775 47.1094Z" fill="black"/>
<path d="M47.8712 47.1094C47.7751 47.1094 47.68 47.1138 47.5861 47.1221C47.8014 47.4138 47.9298 47.7736 47.9298 48.1641C47.9298 49.1349 47.1428 49.9219 46.172 49.9219C45.6294 49.9219 45.1448 49.6755 44.8224 49.2891C44.7105 49.6163 44.6486 49.9669 44.6486 50.332V53.7305C44.6486 55.5103 46.0914 56.9531 47.8712 56.9531C49.651 56.9531 51.0939 55.5103 51.0939 53.7305V50.332C51.0939 48.5522 49.651 47.1094 47.8712 47.1094Z" fill="black"/>
<path d="M83.7892 74.1797V78.2812H36.2111V74.1797H83.7892ZM87.8907 70.0781V38.9062C87.8907 36.641 86.0544 34.8047 83.7892 34.8047H36.2111C33.9458 34.8047 32.1095 36.641 32.1095 38.9062V70.0781C32.1095 72.3434 33.9458 74.1797 36.2111 74.1797V78.2812L35.7889 78.2708C31.5944 78.0582 28.231 74.6947 28.0183 70.5003L28.0079 70.0781V38.9062C28.0079 34.3758 31.6806 30.7031 36.2111 30.7031H83.7892C88.3196 30.7031 91.9923 34.3758 91.9923 38.9062V70.0781C91.9923 74.467 88.5456 78.0511 84.2114 78.2708L83.7892 78.2812V74.1797C86.0544 74.1797 87.8907 72.3434 87.8907 70.0781Z" fill="#5F220F"/>
<path d="M19.8048 77.0508C19.8048 68.2164 26.9665 61.0547 35.8009 61.0547H84.1993C93.0337 61.0547 100.195 68.2164 100.195 77.0508V77.0508C100.195 85.8852 93.0337 93.0469 84.1993 93.0469H35.8009C26.9665 93.0469 19.8048 85.8852 19.8048 77.0508V77.0508Z" fill="#5F220F"/>
<path d="M65.7423 68.7891C67.1015 68.7891 68.2386 69.9149 67.8369 71.2133C67.4462 72.4761 66.7524 73.6377 65.8006 74.5895C64.2622 76.1279 62.1757 76.9922 60.0001 76.9922C57.8245 76.9922 55.738 76.1279 54.1996 74.5895C53.2478 73.6377 52.5541 72.4761 52.1634 71.2133C51.7617 69.9149 52.8988 68.7891 54.2579 68.7891L60.0001 68.7891H65.7423Z" fill="white"/>
<rect x="55.7812" y="65.7422" width="10.8984" height="8.32031" rx="3.51562" transform="rotate(-90 55.7812 65.7422)" fill="#EB8876"/>
</g>
<defs>
<clipPath id="clip0_3704_25605">
<rect width="120" height="120" rx="60" fill="white"/>
</clipPath>
</defs>
</svg>
