<svg width="120" height="120" viewBox="0 0 120 120" fill="none" xmlns="http://www.w3.org/2000/svg">
<g clip-path="url(#clip0_3704_25716)">
<rect width="120" height="120" rx="60" fill="#F2F2F7"/>
<circle cx="38.7891" cy="98.6719" r="8.90625" fill="#013244"/>
<circle cx="32.6953" cy="87.0703" r="8.90625" fill="#013244"/>
<circle cx="46.4062" cy="89.7656" r="8.90625" fill="#013244"/>
<circle cx="28.8281" cy="74.8828" r="8.90625" fill="#013244"/>
<circle cx="25.5469" cy="63.2812" r="8.90625" fill="#013244"/>
<circle cx="25.5469" cy="49.2188" r="8.90625" fill="#013244"/>
<path d="M37.7344 59.2383C37.7344 62.8303 34.8225 65.7422 31.2305 65.7422C27.6385 65.7422 24.7266 62.8303 24.7266 59.2383C24.7266 55.6463 27.6385 52.7344 31.2305 52.7344C34.8225 52.7344 37.7344 55.6463 37.7344 59.2383Z" fill="#85473B"/>
<path d="M95.2734 59.2383C95.2734 62.8303 92.3615 65.7422 88.7695 65.7422C85.1775 65.7422 82.2656 62.8303 82.2656 59.2383C82.2656 55.6463 85.1775 52.7344 88.7695 52.7344C92.3615 52.7344 95.2734 55.6463 95.2734 59.2383Z" fill="#85473B"/>
<rect x="32.6953" y="38.2031" width="54.6094" height="51.0938" rx="11.7188" fill="#85473B"/>
<path d="M75.5859 38.2031C82.058 38.2031 87.3047 43.4498 87.3047 49.9219V58.2422C87.3047 58.5658 87.0424 58.8281 86.7188 58.8281C86.3951 58.8281 86.1328 58.5658 86.1328 58.2422V56.9531C86.1328 50.481 80.8861 45.2344 74.4141 45.2344H45.5859C39.1139 45.2344 33.8672 50.481 33.8672 56.9531V58.2422C33.8672 58.5658 33.6049 58.8281 33.2812 58.8281C32.9576 58.8281 32.6953 58.5658 32.6953 58.2422V49.9219C32.6953 43.4498 37.942 38.2031 44.4141 38.2031H75.5859Z" fill="#013244"/>
<path d="M42.4626 96.4813C43.0651 94.5103 44.8843 93.1641 46.9453 93.1641H73.0547C75.1157 93.1641 76.9349 94.5103 77.5374 96.4813L84.7266 120H35.2734L42.4626 96.4813Z" fill="#FFC700"/>
<rect x="42.1875" y="52.9688" width="13.125" height="16.4062" rx="6.5625" fill="white"/>
<rect x="64.6875" y="52.9688" width="13.125" height="16.4062" rx="6.5625" fill="white"/>
<path d="M50.332 57.0703C50.2359 57.0703 50.1408 57.0748 50.0469 57.083C50.2622 57.3747 50.3906 57.7346 50.3906 58.125C50.3906 59.0958 49.6036 59.8828 48.6328 59.8828C48.0902 59.8828 47.6056 59.6364 47.2832 59.25C47.1713 59.5772 47.1094 59.9278 47.1094 60.293V63.6914C47.1094 65.4712 48.5522 66.9141 50.332 66.9141C52.1119 66.9141 53.5547 65.4712 53.5547 63.6914V60.293C53.5547 58.5131 52.1119 57.0703 50.332 57.0703Z" fill="black"/>
<path d="M69.668 57.0703C69.5719 57.0703 69.4768 57.0748 69.3828 57.083C69.5981 57.3747 69.7266 57.7346 69.7266 58.125C69.7266 59.0958 68.9396 59.8828 67.9688 59.8828C67.4261 59.8828 66.9416 59.6364 66.6191 59.25C66.5072 59.5772 66.4453 59.9278 66.4453 60.293V63.6914C66.4453 65.4712 67.8881 66.9141 69.668 66.9141C71.4478 66.9141 72.8906 65.4712 72.8906 63.6914V60.293C72.8906 58.5131 71.4478 57.0703 69.668 57.0703Z" fill="black"/>
<rect x="56.3672" y="62.8125" width="7.26562" height="10.3125" rx="3.63281" fill="#5C281F"/>
<path d="M65.692 76.4062C67.0512 76.4062 68.1883 77.5321 67.7866 78.8305C67.3959 80.0933 66.7021 81.2549 65.7503 82.2067C64.2119 83.7451 62.1254 84.6094 59.9498 84.6094C57.7742 84.6094 55.6877 83.7451 54.1494 82.2067C53.1975 81.2549 52.5038 80.0933 52.1131 78.8305C51.7114 77.5321 52.8485 76.4063 54.2077 76.4063L59.9498 76.4062H65.692Z" fill="white"/>
<circle cx="62.3438" cy="36.3281" r="8.90625" fill="#013244"/>
<circle cx="33.8672" cy="38.0859" r="8.90625" fill="#013244"/>
<path d="M43.2309 27.316C40.7475 24.8327 37.3793 23.4375 33.8672 23.4375C30.3552 23.4375 26.987 24.8327 24.5036 27.316C22.0202 29.7994 20.625 33.1676 20.625 36.6797C20.625 40.1917 22.0202 43.5599 24.5036 46.0433L33.8672 36.6797L43.2309 27.316Z" fill="#013244"/>
<circle cx="49.1016" cy="30.2344" r="13.2422" fill="#013244"/>
<rect x="50.1562" y="89.2969" width="19.5703" height="3.86719" fill="#FFC700"/>
</g>
<defs>
<clipPath id="clip0_3704_25716">
<rect width="120" height="120" rx="60" fill="white"/>
</clipPath>
</defs>
</svg>
