<svg width="120" height="120" viewBox="0 0 120 120" fill="none" xmlns="http://www.w3.org/2000/svg">
<g clip-path="url(#clip0_3704_25644)">
<rect width="120" height="120" rx="60" fill="#F2F2F7"/>
<path d="M9.96094 103.945C9.96094 94.2372 17.8309 86.3672 27.5391 86.3672H92.4609C102.169 86.3672 110.039 94.2372 110.039 103.945V120H9.96094V103.945Z" fill="#65B319"/>
<rect x="28.0078" y="16.5234" width="63.9844" height="85.4297" rx="29.2969" fill="#D1906D"/>
<circle cx="93.2227" cy="97.207" r="19.3945" fill="#65B319"/>
<circle cx="26.7773" cy="97.207" r="19.3945" fill="#65B319"/>
<path d="M31.875 53.1445C31.875 56.9954 28.7532 60.1172 24.9023 60.1172C21.0515 60.1172 17.9297 56.9954 17.9297 53.1445C17.9297 49.2936 21.0515 46.1719 24.9023 46.1719C28.7532 46.1719 31.875 49.2936 31.875 53.1445Z" fill="#D1906D"/>
<path d="M102.07 53.1445C102.07 56.9954 98.9485 60.1172 95.0977 60.1172C91.2468 60.1172 88.125 56.9954 88.125 53.1445C88.125 49.2936 91.2468 46.1719 95.0977 46.1719C98.9485 46.1719 102.07 49.2936 102.07 53.1445Z" fill="#D1906D"/>
<path d="M28.0078 69.6094H91.9922V93.6328C91.9922 100.752 86.2209 106.523 79.1016 106.523H40.8984C33.7791 106.523 28.0078 100.752 28.0078 93.6328V69.6094Z" fill="#013244"/>
<path d="M36.2109 71.9531C36.2109 66.1282 40.9329 61.4062 46.7578 61.4062H73.2422C79.0671 61.4062 83.7891 66.1282 83.7891 71.9531V81.0938H36.2109V71.9531Z" fill="#013244"/>
<rect x="44.7656" y="66.4453" width="30" height="10.0781" rx="5.03906" fill="#946A58"/>
<rect x="36.2695" y="39.082" width="15.9375" height="18.1641" rx="7.96875" fill="white"/>
<rect x="83.1445" y="57.2461" width="15.9375" height="18.1641" rx="7.96875" transform="rotate(-180 83.1445 57.2461)" fill="white"/>
<path d="M72.9492 44.6484C72.8531 44.6484 72.758 44.6529 72.6641 44.6611C72.8794 44.9529 73.0078 45.3127 73.0078 45.7031C73.0078 46.6739 72.2208 47.4609 71.25 47.4609C70.7074 47.4609 70.2228 47.2145 69.9004 46.8281C69.7885 47.1554 69.7266 47.5059 69.7266 47.8711V51.2695C69.7266 53.0494 71.1694 54.4922 72.9492 54.4922C74.729 54.4922 76.1719 53.0494 76.1719 51.2695V47.8711C76.1719 46.0913 74.729 44.6484 72.9492 44.6484Z" fill="black"/>
<path d="M46.2305 44.6484C46.1344 44.6484 46.0393 44.6529 45.9453 44.6611C46.1606 44.9529 46.2891 45.3127 46.2891 45.7031C46.2891 46.6739 45.5021 47.4609 44.5312 47.4609C43.9886 47.4609 43.5041 47.2145 43.1816 46.8281C43.0697 47.1554 43.0078 47.5059 43.0078 47.8711V51.2695C43.0078 53.0494 44.4506 54.4922 46.2305 54.4922C48.0103 54.4922 49.4531 53.0494 49.4531 51.2695V47.8711C49.4531 46.0913 48.0103 44.6484 46.2305 44.6484Z" fill="black"/>
<rect x="54.4922" y="42.3047" width="10.4297" height="22.0312" rx="3.51562" fill="#946A58"/>
<rect x="49.8047" y="70.8984" width="21.3281" height="1.52344" rx="0.761719" fill="#774E3D"/>
<path d="M87.1251 83.4699C87.0848 82.9862 86.6599 82.6268 86.1762 82.6671C85.6925 82.7074 85.333 83.1323 85.3734 83.616L86.2492 83.543L87.1251 83.4699ZM86.2575 83.6426L87.019 84.0815L87.1562 83.8434L87.1334 83.5696L86.2575 83.6426ZM86.2257 89.8962L86.4998 90.7313L86.7676 90.6434L86.9343 90.4161L86.2257 89.8962ZM86.1143 89.9328L85.8402 89.0977L85.1571 89.3219L85.2414 90.0358L86.1143 89.9328ZM85.2532 90.1352C85.3101 90.6172 85.747 90.9618 86.2291 90.9049C86.7112 90.848 87.0558 90.411 86.9988 89.929L86.126 90.0321L85.2532 90.1352ZM86.2492 83.543L85.3734 83.616L85.3817 83.7157L86.2575 83.6426L87.1334 83.5696L87.1251 83.4699L86.2492 83.543ZM86.2575 83.6426L85.4961 83.2037C85.0692 83.9444 84.7695 84.6477 84.6464 85.3003C84.5218 85.9611 84.5697 86.6268 84.9157 87.2066L85.6705 86.7562L86.4252 86.3058C86.3617 86.1995 86.3027 86.0031 86.3738 85.626C86.4464 85.2408 86.645 84.7304 87.019 84.0815L86.2575 83.6426ZM85.6705 86.7562L84.9157 87.2066C85.2638 87.7898 85.4165 88.3146 85.4264 88.791L86.3051 88.7729L87.1838 88.7548C87.1665 87.9147 86.8962 87.095 86.4252 86.3058L85.6705 86.7562ZM86.3051 88.7729L85.4264 88.791C85.4329 89.1101 85.4291 89.3375 85.4187 89.4855C85.4134 89.5607 85.4076 89.5957 85.4062 89.6028C85.4056 89.6059 85.4087 89.5887 85.4191 89.5589C85.4274 89.5351 85.4544 89.4617 85.5171 89.3762L86.2257 89.8962L86.9343 90.4161C87.0727 90.2275 87.115 90.0218 87.1299 89.9473C87.1517 89.8381 87.1642 89.7214 87.1721 89.6094C87.1881 89.3829 87.1908 89.094 87.1838 88.7548L86.3051 88.7729ZM86.2257 89.8962L85.9517 89.0611L85.8402 89.0977L86.1143 89.9328L86.3883 90.7678L86.4998 90.7313L86.2257 89.8962ZM86.1143 89.9328L85.2414 90.0358L85.2532 90.1352L86.126 90.0321L86.9988 89.929L86.9871 89.8297L86.1143 89.9328Z" fill="#00202C"/>
<path d="M70.0656 84.7707C70.0253 84.287 69.6005 83.9275 69.1167 83.9679C68.633 84.0082 68.2736 84.4331 68.3139 84.9168L69.1898 84.8438L70.0656 84.7707ZM69.1981 84.9434L69.9596 85.3823L70.0968 85.1442L70.074 84.8704L69.1981 84.9434ZM69.1663 91.197L69.4403 92.0321L69.7081 91.9442L69.8749 91.7169L69.1663 91.197ZM69.0548 91.2335L68.7808 90.3985L68.0977 90.6226L68.182 91.3366L69.0548 91.2335ZM68.1937 91.4359C68.2507 91.918 68.6876 92.2626 69.1696 92.2057C69.6517 92.1488 69.9963 91.7118 69.9394 91.2298L69.0666 91.3329L68.1937 91.4359ZM69.1898 84.8438L68.3139 84.9168L68.3222 85.0164L69.1981 84.9434L70.074 84.8704L70.0656 84.7707L69.1898 84.8438ZM69.1981 84.9434L68.4366 84.5045C68.0097 85.2452 67.71 85.9484 67.587 86.6011C67.4624 87.2619 67.5102 87.9275 67.8563 88.5074L68.611 88.057L69.3657 87.6066C69.3023 87.5003 69.2432 87.3039 69.3143 86.9268C69.387 86.5416 69.5856 86.0312 69.9596 85.3823L69.1981 84.9434ZM68.611 88.057L67.8563 88.5074C68.2043 89.0906 68.3571 89.6154 68.3669 90.0918L69.2456 90.0737L70.1243 90.0556C70.107 89.2154 69.8368 88.3958 69.3657 87.6066L68.611 88.057ZM69.2456 90.0737L68.3669 90.0918C68.3735 90.4109 68.3697 90.6383 68.3592 90.7863C68.3539 90.8615 68.3482 90.8965 68.3467 90.9036C68.3461 90.9067 68.3492 90.8894 68.3596 90.8597C68.3679 90.8359 68.395 90.7625 68.4576 90.677L69.1663 91.197L69.8749 91.7169C70.0133 91.5283 70.0556 91.3226 70.0705 91.248C70.0923 91.1389 70.1048 91.0221 70.1127 90.9102C70.1287 90.6837 70.1313 90.3948 70.1243 90.0556L69.2456 90.0737ZM69.1663 91.197L68.8922 90.3619L68.7808 90.3985L69.0548 91.2335L69.3289 92.0686L69.4403 92.0321L69.1663 91.197ZM69.0548 91.2335L68.182 91.3366L68.1937 91.4359L69.0666 91.3329L69.9394 91.2298L69.9277 91.1305L69.0548 91.2335Z" fill="#00202C"/>
<path d="M48.922 83.4699C48.8816 82.9862 48.4568 82.6268 47.9731 82.6671C47.4893 82.7074 47.1299 83.1323 47.1702 83.616L48.0461 83.543L48.922 83.4699ZM48.0544 83.6426L48.8159 84.0815L48.9531 83.8434L48.9303 83.5696L48.0544 83.6426ZM48.0226 89.8962L48.2966 90.7313L48.5644 90.6434L48.7312 90.4161L48.0226 89.8962ZM47.9112 89.9328L47.6371 89.0977L46.954 89.3219L47.0383 90.0358L47.9112 89.9328ZM47.05 90.1352C47.107 90.6172 47.5439 90.9618 48.026 90.9049C48.508 90.848 48.8527 90.411 48.7957 89.929L47.9229 90.0321L47.05 90.1352ZM48.0461 83.543L47.1702 83.616L47.1785 83.7157L48.0544 83.6426L48.9303 83.5696L48.922 83.4699L48.0461 83.543ZM48.0544 83.6426L47.2929 83.2037C46.866 83.9444 46.5663 84.6477 46.4433 85.3003C46.3187 85.9611 46.3666 86.6268 46.7126 87.2066L47.4673 86.7562L48.2221 86.3058C48.1586 86.1995 48.0996 86.0031 48.1707 85.626C48.2433 85.2408 48.4419 84.7304 48.8159 84.0815L48.0544 83.6426ZM47.4673 86.7562L46.7126 87.2066C47.0606 87.7898 47.2134 88.3146 47.2232 88.791L48.102 88.7729L48.9807 88.7548C48.9634 87.9147 48.6931 87.095 48.2221 86.3058L47.4673 86.7562ZM48.102 88.7729L47.2232 88.791C47.2298 89.1101 47.226 89.3375 47.2156 89.4855C47.2102 89.5607 47.2045 89.5957 47.2031 89.6028C47.2024 89.6059 47.2056 89.5887 47.2159 89.5589C47.2243 89.5351 47.2513 89.4617 47.314 89.3762L48.0226 89.8962L48.7312 90.4161C48.8696 90.2275 48.9119 90.0218 48.9268 89.9473C48.9486 89.8381 48.9611 89.7214 48.969 89.6094C48.985 89.3829 48.9877 89.094 48.9807 88.7548L48.102 88.7729ZM48.0226 89.8962L47.7485 89.0611L47.6371 89.0977L47.9112 89.9328L48.1852 90.7678L48.2966 90.7313L48.0226 89.8962ZM47.9112 89.9328L47.0383 90.0358L47.05 90.1352L47.9229 90.0321L48.7957 89.929L48.784 89.8297L47.9112 89.9328Z" fill="#00202C"/>
<path d="M82.8391 95.4348C82.7988 94.9511 82.3739 94.5916 81.8902 94.6319C81.4065 94.6723 81.047 95.0971 81.0874 95.5808L81.9632 95.5078L82.8391 95.4348ZM81.9715 95.6075L82.733 96.0464L82.8702 95.8083L82.8474 95.5344L81.9715 95.6075ZM81.9397 101.861L82.2137 102.696L82.4816 102.608L82.6483 102.381L81.9397 101.861ZM81.8283 101.898L81.5542 101.063L80.8711 101.287L80.9554 102.001L81.8283 101.898ZM80.9672 102.1C81.0241 102.582 81.461 102.927 81.9431 102.87C82.4251 102.813 82.7698 102.376 82.7128 101.894L81.84 101.997L80.9672 102.1ZM81.9632 95.5078L81.0874 95.5808L81.0957 95.6805L81.9715 95.6075L82.8474 95.5344L82.8391 95.4348L81.9632 95.5078ZM81.9715 95.6075L81.2101 95.1686C80.7831 95.9093 80.4835 96.6125 80.3604 97.2652C80.2358 97.9259 80.2837 98.5916 80.6297 99.1715L81.3845 98.7211L82.1392 98.2706C82.0757 98.1643 82.0167 97.968 82.0878 97.5909C82.1604 97.2057 82.359 96.6952 82.733 96.0464L81.9715 95.6075ZM81.3845 98.7211L80.6297 99.1715C80.9778 99.7546 81.1305 100.279 81.1403 100.756L82.0191 100.738L82.8978 100.72C82.8805 99.8795 82.6102 99.0599 82.1392 98.2706L81.3845 98.7211ZM82.0191 100.738L81.1403 100.756C81.1469 101.075 81.1431 101.302 81.1327 101.45C81.1274 101.526 81.1216 101.561 81.1202 101.568C81.1196 101.571 81.1227 101.554 81.1331 101.524C81.1414 101.5 81.1684 101.427 81.2311 101.341L81.9397 101.861L82.6483 102.381C82.7867 102.192 82.829 101.987 82.8439 101.912C82.8657 101.803 82.8782 101.686 82.8861 101.574C82.9021 101.348 82.9048 101.059 82.8978 100.72L82.0191 100.738ZM81.9397 101.861L81.6656 101.026L81.5542 101.063L81.8283 101.898L82.1023 102.733L82.2137 102.696L81.9397 101.861ZM81.8283 101.898L80.9554 102.001L80.9672 102.1L81.84 101.997L82.7128 101.894L82.7011 101.795L81.8283 101.898Z" fill="#00202C"/>
<path d="M63.7375 95.4348C63.6972 94.9511 63.2724 94.5916 62.7886 94.6319C62.3049 94.6723 61.9455 95.0971 61.9858 95.5808L62.8617 95.5078L63.7375 95.4348ZM62.87 95.6075L63.6314 96.0464L63.7687 95.8083L63.7458 95.5344L62.87 95.6075ZM62.8381 101.861L63.1122 102.696L63.38 102.608L63.5467 102.381L62.8381 101.861ZM62.7267 101.898L62.4527 101.063L61.7695 101.287L61.8539 102.001L62.7267 101.898ZM61.8656 102.1C61.9225 102.582 62.3595 102.927 62.8415 102.87C63.3236 102.813 63.6682 102.376 63.6113 101.894L62.7384 101.997L61.8656 102.1ZM62.8617 95.5078L61.9858 95.5808L61.9941 95.6805L62.87 95.6075L63.7458 95.5344L63.7375 95.4348L62.8617 95.5078ZM62.87 95.6075L62.1085 95.1686C61.6816 95.9093 61.3819 96.6125 61.2588 97.2652C61.1343 97.9259 61.1821 98.5916 61.5282 99.1715L62.2829 98.7211L63.0376 98.2706C62.9742 98.1643 62.9151 97.968 62.9862 97.5909C63.0588 97.2057 63.2575 96.6952 63.6314 96.0464L62.87 95.6075ZM62.2829 98.7211L61.5282 99.1715C61.8762 99.7546 62.029 100.279 62.0388 100.756L62.9175 100.738L63.7962 100.72C63.7789 99.8795 63.5086 99.0599 63.0376 98.2706L62.2829 98.7211ZM62.9175 100.738L62.0388 100.756C62.0454 101.075 62.0416 101.302 62.0311 101.45C62.0258 101.526 62.02 101.561 62.0186 101.568C62.018 101.571 62.0211 101.554 62.0315 101.524C62.0398 101.5 62.0668 101.427 62.1295 101.341L62.8381 101.861L63.5467 102.381C63.6852 102.192 63.7275 101.987 63.7423 101.912C63.7642 101.803 63.7766 101.686 63.7845 101.574C63.8005 101.348 63.8032 101.059 63.7962 100.72L62.9175 100.738ZM62.8381 101.861L62.5641 101.026L62.4527 101.063L62.7267 101.898L63.0008 102.733L63.1122 102.696L62.8381 101.861ZM62.7267 101.898L61.8539 102.001L61.8656 102.1L62.7384 101.997L63.6113 101.894L63.5995 101.795L62.7267 101.898Z" fill="#00202C"/>
<path d="M44.636 95.4348C44.5956 94.9511 44.1708 94.5916 43.6871 94.6319C43.2033 94.6723 42.8439 95.0971 42.8842 95.5808L43.7601 95.5078L44.636 95.4348ZM43.7684 95.6075L44.5299 96.0464L44.6671 95.8083L44.6443 95.5344L43.7684 95.6075ZM43.7366 101.861L44.0106 102.696L44.2784 102.608L44.4452 102.381L43.7366 101.861ZM43.6251 101.898L43.3511 101.063L42.668 101.287L42.7523 102.001L43.6251 101.898ZM42.764 102.1C42.821 102.582 43.2579 102.927 43.74 102.87C44.222 102.813 44.5666 102.376 44.5097 101.894L43.6369 101.997L42.764 102.1ZM43.7601 95.5078L42.8842 95.5808L42.8925 95.6805L43.7684 95.6075L44.6443 95.5344L44.636 95.4348L43.7601 95.5078ZM43.7684 95.6075L43.0069 95.1686C42.58 95.9093 42.2803 96.6125 42.1573 97.2652C42.0327 97.9259 42.0805 98.5916 42.4266 99.1715L43.1813 98.7211L43.9361 98.2706C43.8726 98.1643 43.8135 97.968 43.8847 97.5909C43.9573 97.2057 44.1559 96.6952 44.5299 96.0464L43.7684 95.6075ZM43.1813 98.7211L42.4266 99.1715C42.7746 99.7546 42.9274 100.279 42.9372 100.756L43.8159 100.738L44.6947 100.72C44.6774 99.8795 44.4071 99.0599 43.9361 98.2706L43.1813 98.7211ZM43.8159 100.738L42.9372 100.756C42.9438 101.075 42.94 101.302 42.9295 101.45C42.9242 101.526 42.9185 101.561 42.9171 101.568C42.9164 101.571 42.9195 101.554 42.9299 101.524C42.9383 101.5 42.9653 101.427 43.028 101.341L43.7366 101.861L44.4452 102.381C44.5836 102.192 44.6259 101.987 44.6408 101.912C44.6626 101.803 44.6751 101.686 44.683 101.574C44.699 101.348 44.7016 101.059 44.6947 100.72L43.8159 100.738ZM43.7366 101.861L43.4625 101.026L43.3511 101.063L43.6251 101.898L43.8992 102.733L44.0106 102.696L43.7366 101.861ZM43.6251 101.898L42.7523 102.001L42.764 102.1L43.6369 101.997L44.5097 101.894L44.498 101.795L43.6251 101.898Z" fill="#00202C"/>
<path d="M41.5891 77.7395C41.5488 77.2557 41.1239 76.8963 40.6402 76.9366C40.1565 76.977 39.797 77.4018 39.8374 77.8855L40.7132 77.8125L41.5891 77.7395ZM40.7215 77.9122L41.483 78.3511L41.6202 78.113L41.5974 77.8391L40.7215 77.9122ZM40.6897 84.1657L40.9637 85.0008L41.2316 84.9129L41.3983 84.6857L40.6897 84.1657ZM40.5783 84.2023L40.3042 83.3672L39.6211 83.5914L39.7054 84.3054L40.5783 84.2023ZM39.7172 84.4047C39.7741 84.8867 40.211 85.2314 40.6931 85.1744C41.1751 85.1175 41.5198 84.6806 41.4628 84.1985L40.59 84.3016L39.7172 84.4047ZM40.7132 77.8125L39.8374 77.8855L39.8457 77.9852L40.7215 77.9122L41.5974 77.8391L41.5891 77.7395L40.7132 77.8125ZM40.7215 77.9122L39.9601 77.4733C39.5331 78.2139 39.2335 78.9172 39.1104 79.5699C38.9858 80.2306 39.0337 80.8963 39.3797 81.4762L40.1345 81.0257L40.8892 80.5753C40.8257 80.469 40.7667 80.2727 40.8378 79.8956C40.9104 79.5104 41.109 78.9999 41.483 78.3511L40.7215 77.9122ZM40.1345 81.0257L39.3797 81.4762C39.7278 82.0593 39.8805 82.5841 39.8903 83.0605L40.7691 83.0424L41.6478 83.0243C41.6305 82.1842 41.3602 81.3646 40.8892 80.5753L40.1345 81.0257ZM40.7691 83.0424L39.8903 83.0605C39.8969 83.3796 39.8931 83.607 39.8827 83.755C39.8774 83.8303 39.8716 83.8652 39.8702 83.8723C39.8696 83.8755 39.8727 83.8582 39.8831 83.8285C39.8914 83.8047 39.9184 83.7312 39.9811 83.6458L40.6897 84.1657L41.3983 84.6857C41.5367 84.497 41.579 84.2913 41.5939 84.2168C41.6157 84.1076 41.6282 83.9909 41.6361 83.8789C41.6521 83.6525 41.6548 83.3635 41.6478 83.0243L40.7691 83.0424ZM40.6897 84.1657L40.4156 83.3306L40.3042 83.3672L40.5783 84.2023L40.8523 85.0374L40.9637 85.0008L40.6897 84.1657ZM40.5783 84.2023L39.7054 84.3054L39.7172 84.4047L40.59 84.3016L41.4628 84.1985L41.4511 84.0992L40.5783 84.2023Z" fill="#00202C"/>
<path d="M61.6281 80.3176C61.5878 79.8339 61.163 79.4744 60.6792 79.5148C60.1955 79.5551 59.8361 79.9799 59.8764 80.4637L60.7523 80.3906L61.6281 80.3176ZM60.7606 80.4903L61.5221 80.9292L61.6593 80.6911L61.6365 80.4172L60.7606 80.4903ZM60.7288 86.7439L61.0028 87.5789L61.2706 87.491L61.4374 87.2638L60.7288 86.7439ZM60.6173 86.7804L60.3433 85.9453L59.6602 86.1695L59.7445 86.8835L60.6173 86.7804ZM59.7562 86.9828C59.8132 87.4649 60.2501 87.8095 60.7321 87.7526C61.2142 87.6956 61.5588 87.2587 61.5019 86.7766L60.6291 86.8797L59.7562 86.9828ZM60.7523 80.3906L59.8764 80.4637L59.8847 80.5633L60.7606 80.4903L61.6365 80.4172L61.6281 80.3176L60.7523 80.3906ZM60.7606 80.4903L59.9991 80.0514C59.5722 80.7921 59.2725 81.4953 59.1495 82.148C59.0249 82.8087 59.0727 83.4744 59.4188 84.0543L60.1735 83.6039L60.9282 83.1535C60.8648 83.0471 60.8057 82.8508 60.8768 82.4737C60.9495 82.0885 61.1481 81.578 61.5221 80.9292L60.7606 80.4903ZM60.1735 83.6039L59.4188 84.0543C59.7668 84.6374 59.9196 85.1623 59.9294 85.6387L60.8081 85.6206L61.6868 85.6025C61.6695 84.7623 61.3993 83.9427 60.9282 83.1535L60.1735 83.6039ZM60.8081 85.6206L59.9294 85.6387C59.936 85.9577 59.9322 86.1852 59.9217 86.3331C59.9164 86.4084 59.9107 86.4434 59.9092 86.4505C59.9086 86.4536 59.9117 86.4363 59.9221 86.4066C59.9304 86.3828 59.9575 86.3093 60.0201 86.2239L60.7288 86.7439L61.4374 87.2638C61.5758 87.0751 61.6181 86.8695 61.633 86.7949C61.6548 86.6858 61.6673 86.569 61.6752 86.457C61.6912 86.2306 61.6938 85.9417 61.6868 85.6025L60.8081 85.6206ZM60.7288 86.7439L60.4547 85.9088L60.3433 85.9453L60.6173 86.7804L60.8914 87.6155L61.0028 87.5789L60.7288 86.7439ZM60.6173 86.7804L59.7445 86.8835L59.7562 86.9828L60.6291 86.8797L61.5019 86.7766L61.4902 86.6773L60.6173 86.7804Z" fill="#00202C"/>
<path d="M81.1985 77.7395C81.1581 77.2557 80.7333 76.8963 80.2496 76.9366C79.7658 76.977 79.4064 77.4018 79.4467 77.8855L80.3226 77.8125L81.1985 77.7395ZM80.3309 77.9122L81.0924 78.3511L81.2296 78.113L81.2068 77.8391L80.3309 77.9122ZM80.2991 84.1657L80.5731 85.0008L80.8409 84.9129L81.0077 84.6857L80.2991 84.1657ZM80.1876 84.2023L79.9136 83.3672L79.2305 83.5914L79.3148 84.3054L80.1876 84.2023ZM79.3265 84.4047C79.3835 84.8867 79.8204 85.2314 80.3025 85.1744C80.7845 85.1175 81.1291 84.6806 81.0722 84.1985L80.1994 84.3016L79.3265 84.4047ZM80.3226 77.8125L79.4467 77.8855L79.455 77.9852L80.3309 77.9122L81.2068 77.8391L81.1985 77.7395L80.3226 77.8125ZM80.3309 77.9122L79.5694 77.4733C79.1425 78.2139 78.8428 78.9172 78.7198 79.5699C78.5952 80.2306 78.643 80.8963 78.9891 81.4762L79.7438 81.0257L80.4986 80.5753C80.4351 80.469 80.376 80.2727 80.4472 79.8956C80.5198 79.5104 80.7184 78.9999 81.0924 78.3511L80.3309 77.9122ZM79.7438 81.0257L78.9891 81.4762C79.3371 82.0593 79.4899 82.5841 79.4997 83.0605L80.3784 83.0424L81.2572 83.0243C81.2399 82.1842 80.9696 81.3646 80.4986 80.5753L79.7438 81.0257ZM80.3784 83.0424L79.4997 83.0605C79.5063 83.3796 79.5025 83.607 79.492 83.755C79.4867 83.8303 79.481 83.8652 79.4796 83.8723C79.4789 83.8755 79.482 83.8582 79.4924 83.8285C79.5008 83.8047 79.5278 83.7312 79.5905 83.6458L80.2991 84.1657L81.0077 84.6857C81.1461 84.497 81.1884 84.2913 81.2033 84.2168C81.2251 84.1076 81.2376 83.9909 81.2455 83.8789C81.2615 83.6525 81.2641 83.3635 81.2572 83.0243L80.3784 83.0424ZM80.2991 84.1657L80.025 83.3306L79.9136 83.3672L80.1876 84.2023L80.4617 85.0374L80.5731 85.0008L80.2991 84.1657ZM80.1876 84.2023L79.3148 84.3054L79.3265 84.4047L80.1994 84.3016L81.0722 84.1985L81.0605 84.0992L80.1876 84.2023Z" fill="#00202C"/>
<path d="M75.3391 92.6223C75.2988 92.1386 74.8739 91.7791 74.3902 91.8194C73.9065 91.8598 73.547 92.2846 73.5874 92.7683L74.4632 92.6953L75.3391 92.6223ZM74.4715 92.795L75.233 93.2339L75.3702 92.9958L75.3474 92.7219L74.4715 92.795ZM74.4397 99.0485L74.7137 99.8836L74.9816 99.7957L75.1483 99.5685L74.4397 99.0485ZM74.3283 99.0851L74.0542 98.25L73.3711 98.4742L73.4554 99.1882L74.3283 99.0851ZM73.4672 99.2875C73.5241 99.7696 73.961 100.114 74.4431 100.057C74.9251 100 75.2698 99.5634 75.2128 99.0813L74.34 99.1844L73.4672 99.2875ZM74.4632 92.6953L73.5874 92.7683L73.5957 92.868L74.4715 92.795L75.3474 92.7219L75.3391 92.6223L74.4632 92.6953ZM74.4715 92.795L73.7101 92.3561C73.2831 93.0968 72.9835 93.8 72.8604 94.4527C72.7358 95.1134 72.7837 95.7791 73.1297 96.359L73.8845 95.9086L74.6392 95.4581C74.5757 95.3518 74.5167 95.1555 74.5878 94.7784C74.6604 94.3932 74.859 93.8827 75.233 93.2339L74.4715 92.795ZM73.8845 95.9086L73.1297 96.359C73.4778 96.9421 73.6305 97.467 73.6403 97.9433L74.5191 97.9253L75.3978 97.9072C75.3805 97.067 75.1102 96.2474 74.6392 95.4581L73.8845 95.9086ZM74.5191 97.9253L73.6403 97.9433C73.6469 98.2624 73.6431 98.4899 73.6327 98.6378C73.6274 98.7131 73.6216 98.7481 73.6202 98.7552C73.6196 98.7583 73.6227 98.741 73.6331 98.7113C73.6414 98.6875 73.6684 98.614 73.7311 98.5286L74.4397 99.0485L75.1483 99.5685C75.2867 99.3798 75.329 99.1742 75.3439 99.0996C75.3657 98.9904 75.3782 98.8737 75.3861 98.7617C75.4021 98.5353 75.4048 98.2463 75.3978 97.9072L74.5191 97.9253ZM74.4397 99.0485L74.1656 98.2134L74.0542 98.25L74.3283 99.0851L74.6023 99.9202L74.7137 99.8836L74.4397 99.0485ZM74.3283 99.0851L73.4554 99.1882L73.4672 99.2875L74.34 99.1844L75.2128 99.0813L75.2011 98.982L74.3283 99.0851Z" fill="#00202C"/>
<path d="M54.5969 92.6223C54.5566 92.1386 54.1317 91.7791 53.648 91.8194C53.1643 91.8598 52.8048 92.2846 52.8452 92.7683L53.721 92.6953L54.5969 92.6223ZM53.7293 92.795L54.4908 93.2339L54.628 92.9958L54.6052 92.7219L53.7293 92.795ZM53.6975 99.0485L53.9716 99.8836L54.2394 99.7957L54.4061 99.5685L53.6975 99.0485ZM53.5861 99.0851L53.312 98.25L52.6289 98.4742L52.7132 99.1882L53.5861 99.0851ZM52.725 99.2875C52.7819 99.7696 53.2188 100.114 53.7009 100.057C54.183 100 54.5276 99.5634 54.4706 99.0813L53.5978 99.1844L52.725 99.2875ZM53.721 92.6953L52.8452 92.7683L52.8535 92.868L53.7293 92.795L54.6052 92.7219L54.5969 92.6223L53.721 92.6953ZM53.7293 92.795L52.9679 92.3561C52.541 93.0968 52.2413 93.8 52.1182 94.4527C51.9936 95.1134 52.0415 95.7791 52.3875 96.359L53.1423 95.9086L53.897 95.4581C53.8335 95.3518 53.7745 95.1555 53.8456 94.7784C53.9182 94.3932 54.1168 93.8827 54.4908 93.2339L53.7293 92.795ZM53.1423 95.9086L52.3875 96.359C52.7356 96.9421 52.8883 97.467 52.8982 97.9433L53.7769 97.9253L54.6556 97.9072C54.6383 97.067 54.368 96.2474 53.897 95.4581L53.1423 95.9086ZM53.7769 97.9253L52.8982 97.9433C52.9047 98.2624 52.9009 98.4899 52.8905 98.6378C52.8852 98.7131 52.8794 98.7481 52.878 98.7552C52.8774 98.7583 52.8805 98.741 52.8909 98.7113C52.8992 98.6875 52.9262 98.614 52.9889 98.5286L53.6975 99.0485L54.4061 99.5685C54.5445 99.3798 54.5868 99.1742 54.6017 99.0996C54.6235 98.9904 54.636 98.8737 54.6439 98.7617C54.6599 98.5353 54.6626 98.2463 54.6556 97.9072L53.7769 97.9253ZM53.6975 99.0485L53.4235 98.2134L53.312 98.25L53.5861 99.0851L53.8601 99.9202L53.9716 99.8836L53.6975 99.0485ZM53.5861 99.0851L52.7132 99.1882L52.725 99.2875L53.5978 99.1844L54.4706 99.0813L54.4589 98.982L53.5861 99.0851Z" fill="#00202C"/>
<path d="M37.7219 89.341C37.6816 88.8573 37.2567 88.4979 36.773 88.5382C36.2893 88.5785 35.9298 89.0034 35.9702 89.4871L36.846 89.4141L37.7219 89.341ZM36.8543 89.5137L37.6158 89.9526L37.753 89.7145L37.7302 89.4407L36.8543 89.5137ZM36.8225 95.7673L37.0966 96.6024L37.3644 96.5145L37.5311 96.2872L36.8225 95.7673ZM36.7111 95.8039L36.437 94.9688L35.7539 95.1929L35.8382 95.9069L36.7111 95.8039ZM35.85 96.0063C35.9069 96.4883 36.3438 96.8329 36.8259 96.776C37.308 96.7191 37.6526 96.2821 37.5956 95.8001L36.7228 95.9032L35.85 96.0063ZM36.846 89.4141L35.9702 89.4871L35.9785 89.5868L36.8543 89.5137L37.7302 89.4407L37.7219 89.341L36.846 89.4141ZM36.8543 89.5137L36.0929 89.0748C35.666 89.8155 35.3663 90.5188 35.2432 91.1714C35.1186 91.8322 35.1665 92.4978 35.5125 93.0777L36.2673 92.6273L37.022 92.1769C36.9585 92.0706 36.8995 91.8742 36.9706 91.4971C37.0432 91.1119 37.2418 90.6015 37.6158 89.9526L36.8543 89.5137ZM36.2673 92.6273L35.5125 93.0777C35.8606 93.6609 36.0133 94.1857 36.0232 94.6621L36.9019 94.644L37.7806 94.6259C37.7633 93.7858 37.493 92.9661 37.022 92.1769L36.2673 92.6273ZM36.9019 94.644L36.0232 94.6621C36.0297 94.9812 36.0259 95.2086 36.0155 95.3566C36.0102 95.4318 36.0044 95.4668 36.003 95.4739C36.0024 95.477 36.0055 95.4598 36.0159 95.43C36.0242 95.4062 36.0512 95.3328 36.1139 95.2473L36.8225 95.7673L37.5311 96.2872C37.6695 96.0986 37.7118 95.8929 37.7267 95.8184C37.7485 95.7092 37.761 95.5925 37.7689 95.4805C37.7849 95.254 37.7876 94.9651 37.7806 94.6259L36.9019 94.644ZM36.8225 95.7673L36.5485 94.9322L36.437 94.9688L36.7111 95.8039L36.9851 96.6389L37.0966 96.6024L36.8225 95.7673ZM36.7111 95.8039L35.8382 95.9069L35.85 96.0063L36.7228 95.9032L37.5956 95.8001L37.5839 95.7008L36.7111 95.8039Z" fill="#00202C"/>
</g>
<defs>
<clipPath id="clip0_3704_25644">
<rect width="120" height="120" rx="60" fill="white"/>
</clipPath>
</defs>
</svg>
