<svg width="14" height="17" viewBox="0 0 14 17" fill="none" xmlns="http://www.w3.org/2000/svg">
<path d="M11.098 8.68618C11.1061 8.06019 11.2723 7.4464 11.5813 6.90194C11.8904 6.35747 12.3321 5.90002 12.8654 5.57214C12.5266 5.08827 12.0796 4.69006 11.56 4.40915C11.0404 4.12824 10.4624 3.97235 9.87203 3.95388C8.6126 3.82168 7.39164 4.7075 6.74986 4.7075C6.09566 4.7075 5.10753 3.967 4.04348 3.9889C3.35523 4.01113 2.68447 4.21127 2.09656 4.56982C1.50865 4.92836 1.02364 5.43308 0.688795 6.0348C-0.761705 8.54611 0.320237 12.2369 1.70969 14.2669C2.40487 15.2609 3.21733 16.3712 4.28042 16.3318C5.32071 16.2887 5.70924 15.6685 6.96497 15.6685C8.20904 15.6685 8.57356 16.3318 9.65822 16.3068C10.7745 16.2887 11.4778 15.3084 12.1486 14.3049C12.6481 13.5967 13.0324 12.8139 13.2874 11.9856C12.6389 11.7113 12.0854 11.2521 11.6961 10.6654C11.3068 10.0787 11.0987 9.39034 11.098 8.68618Z" fill="white"/>
<path d="M9.04927 2.61796C9.65791 1.88731 9.95777 0.948174 9.88516 0C8.95528 0.0976654 8.09634 0.542085 7.47947 1.24471C7.17787 1.58796 6.94687 1.98728 6.79968 2.41986C6.6525 2.85244 6.59202 3.30978 6.62169 3.76575C7.08679 3.77054 7.54692 3.66973 7.96742 3.47091C8.38792 3.2721 8.75782 2.98046 9.04927 2.61796Z" fill="white"/>
</svg>
