<svg width="300" height="230" viewBox="0 0 300 230" fill="none" xmlns="http://www.w3.org/2000/svg">
<mask id="mask0_3145_3760" style="mask-type:alpha" maskUnits="userSpaceOnUse" x="0" y="0" width="300" height="230">
<rect width="300" height="230" fill="white"/>
</mask>
<g mask="url(#mask0_3145_3760)">
<path d="M270 194C279.941 194 288 202.059 288 212C288 221.941 279.941 230 270 230H73C63.0589 230 55 221.941 55 212C55 202.059 63.0589 194 73 194H29C19.0589 194 11 185.941 11 176C11 166.059 19.0589 158 29 158H56C46.0589 158 38 149.941 38 140C38 130.059 46.0589 122 56 122H34C24.0589 122 16 113.941 16 104C16 94.0589 24.0589 86 34 86H82C72.0589 86 64 77.9411 64 68C64 58.0589 72.0589 50 82 50H211C220.941 50 229 58.0589 229 68C229 77.9411 220.941 86 211 86H252C261.941 86 270 94.0589 270 104C270 113.941 261.941 122 252 122H279C288.941 122 297 130.059 297 140C297 149.941 288.941 158 279 158H254C263.941 158 272 166.059 272 176C272 185.941 263.941 194 254 194H270Z" fill="#DBF5FF"/>
<path d="M107 99C115.837 99 123 106.163 123 115C123 123.837 115.837 131 107 131H66V126H66.0117C66.1357 123.397 67.2242 120.926 69.0752 119.075C71.0443 117.106 73.7152 116 76.5 116C77.941 116 79.3509 116.298 80.6494 116.856C82.1306 112.853 85.9821 110 90.5 110C90.9305 110 91.3546 110.029 91.7715 110.079C93.8473 103.65 99.8804 99 107 99Z" fill="white"/>
<path d="M207.947 198C201.901 198 197 202.901 197 208.947C197 214.804 201.6 219.588 207.384 219.881L207.947 219.895H236V216.474H235.991C235.906 214.693 235.162 213.002 233.896 211.735C232.548 210.388 230.721 209.632 228.815 209.632C227.83 209.632 226.866 209.836 225.978 210.218C224.964 207.479 222.329 205.527 219.237 205.526C218.942 205.526 218.651 205.546 218.365 205.58C216.945 201.182 212.818 198 207.947 198Z" fill="white"/>
<circle cx="117" cy="123" r="6" fill="#FFB5A1"/>
<circle cx="180" cy="123" r="6" fill="#FFB5A1"/>
<path d="M117 111C117 96.0883 129.088 84 144 84H150C164.912 84 177 96.0883 177 111V136C177 144.284 170.284 151 162 151H132C123.716 151 117 144.284 117 136V111Z" fill="#FFB5A1"/>
<path d="M116.723 195.7C112.434 179.696 121.932 163.246 137.936 158.958L156.288 154.041C172.292 149.752 188.742 159.25 193.031 175.254L208.042 231.277L131.734 251.724L116.723 195.7Z" fill="#ADE756"/>
<path d="M142.22 160.858L137 147.5L156.874 143L160.964 153.569C163.12 159.142 159.97 165.354 154.2 166.908C149.249 168.241 144.087 165.634 142.22 160.858Z" fill="#FFB5A1"/>
<rect x="137" y="123" width="6" height="10" rx="3" fill="#FF8978"/>
<path d="M152.979 139C151.5 142.148 147.89 143.444 144 142.898" stroke="white" stroke-width="5" stroke-linecap="round"/>
<path d="M167 110H177V128V128C171.477 128 167 123.523 167 118V110Z" fill="#5F220F"/>
<path d="M117 110H121V124C121 126.209 119.209 128 117 128V128V110Z" fill="#5F220F"/>
<path d="M177 110.5C177 102.676 173.839 95.1727 168.213 89.6404C162.587 84.108 154.956 81 147 81C139.044 81 131.413 84.108 125.787 89.6403C120.161 95.1727 117 102.676 117 110.5L147 110.5H177Z" fill="#ADE756"/>
<circle cx="126.5" cy="92.5" r="12.5" fill="#5F220F"/>
<circle cx="137" cy="97" r="8" fill="#5F220F"/>
<path d="M156 107C156 105.067 157.567 103.5 159.5 103.5H191.5C193.433 103.5 195 105.067 195 107V107C195 108.933 193.433 110.5 191.5 110.5H159.5C157.567 110.5 156 108.933 156 107V107Z" fill="#ADE756"/>
<rect x="124" y="115" width="11" height="15" rx="5.5" fill="white"/>
<rect x="145" y="115" width="11" height="15" rx="5.5" fill="white"/>
<path d="M174 161.5L221.5 156L181.75 195.5" stroke="#FFB5A1" stroke-width="20" stroke-linecap="round" stroke-linejoin="round"/>
<path d="M174 161.5L221.5 156" stroke="#9ED748" stroke-width="20" stroke-linecap="round" stroke-linejoin="round"/>
<path d="M159.858 31.4065C159.506 29.0445 158.23 26.9482 156.269 25.5861C154.31 24.2235 151.827 23.7068 149.407 24.1422C146.986 24.5776 144.839 25.9273 143.478 27.8871C142.114 29.8473 141.649 32.257 142.142 34.5935C142.142 34.5935 142.142 34.5935 142.142 34.5935C142.803 37.7266 143.462 40.8599 144.121 43.9934C153.822 90.1539 163.33 136.349 173.315 182.459C175.53 192.689 178.92 202.709 182.136 212.759C183.12 215.834 184.087 218.912 185 222C184.779 218.788 184.613 215.566 184.464 212.341C183.975 201.799 183.661 191.227 182.172 180.865C175.462 134.167 168.274 87.554 161.279 40.9066C160.805 37.7401 160.331 34.5734 159.858 31.4065Z" fill="#DD5600"/>
<path d="M120.25 181L145 225.5L181.75 213.5" stroke="#FFB5A1" stroke-width="20" stroke-linecap="round" stroke-linejoin="round"/>
<path d="M128.988 176.137C126.302 171.311 120.212 169.576 115.387 172.262C110.561 174.948 108.826 181.038 111.512 185.863L120.25 181L128.988 176.137ZM126.262 212.363L131.126 221.101L148.601 211.374L143.738 202.637L135 207.5L126.262 212.363ZM120.25 181L111.512 185.863L126.262 212.363L135 207.5L143.738 202.637L128.988 176.137L120.25 181Z" fill="#9ED748"/>
<path d="M221.5 156L181.75 195.5" stroke="#FFB5A1" stroke-width="20" stroke-linecap="round" stroke-linejoin="round"/>
<path d="M130 119C131.657 119 133 120.343 133 122V125C133 126.657 131.657 128 130 128C128.343 128 127 126.657 127 125V122.729C127.294 122.9 127.635 123 128 123C129.105 123 130 122.105 130 121C130 120.217 129.549 119.54 128.894 119.212C129.236 119.076 129.609 119 130 119Z" fill="black"/>
<path d="M151 119C152.657 119 154 120.343 154 122V125C154 126.657 152.657 128 151 128C149.343 128 148 126.657 148 125V122C148 121.911 148.004 121.824 148.012 121.737C148.303 121.904 148.64 122 149 122C150.105 122 151 121.105 151 120C151 119.64 150.904 119.303 150.737 119.012C150.824 119.004 150.911 119 151 119Z" fill="black"/>
<rect x="127" y="101" width="10" height="4" fill="#5F220F"/>
<rect x="122" y="129" width="13" height="5" rx="2.5" fill="black"/>
<rect x="145" y="129" width="13" height="5" rx="2.5" fill="black"/>
</g>
<g clip-path="url(#clip0_3145_3760)">
<path d="M72.8771 90.4815C73.2248 92.2523 74.8233 93.2163 76.7437 92.8393C78.434 92.5074 80.7293 90.755 80.07 87.3972L77.776 75.714C77.6947 75.3001 77.2683 75.0136 76.8543 75.0949C76.4288 75.1784 76.1423 75.6049 76.2236 76.0189L77.8853 84.4822C77.9982 85.0572 77.8406 85.4704 77.3641 85.6594L75.601 86.4117C73.3845 87.3485 72.5339 88.7336 72.8771 90.4815Z" fill="black" fill-opacity="0.85"/>
<path d="M63.205 86.2899C63.5505 88.0492 65.1628 89.0224 67.0716 88.6476C68.7734 88.3134 71.0572 86.5633 70.3957 83.1941L68.1017 71.5109C68.0204 71.0969 67.6054 70.8082 67.1799 70.8917C66.7545 70.9753 66.468 71.4018 66.5492 71.8157L68.2133 80.2906C68.3239 80.8541 68.1777 81.265 67.6921 81.4678L65.9382 82.2063C63.7102 83.1453 62.8596 84.5305 63.205 86.2899Z" fill="black" fill-opacity="0.85"/>
<path d="M53.9151 94.2046C54.2629 95.9755 55.8728 96.9372 57.7817 96.5624C59.4836 96.2283 61.7673 94.4782 61.108 91.1204L58.814 79.4372C58.7305 79.0117 58.3178 78.7345 57.8923 78.818C57.4669 78.9016 57.1781 79.3165 57.2617 79.742L58.9234 88.2054C59.0341 88.7689 58.8901 89.1913 58.4022 89.3825L56.6483 90.121C54.4226 91.0716 53.5697 92.4452 53.9151 94.2046Z" fill="black" fill-opacity="0.85"/>
</g>
<g clip-path="url(#clip1_3145_3760)">
<path d="M227.023 110.678L226.201 106.349C226.085 105.739 225.516 105.442 224.95 105.668L219.278 108.082C218.571 108.383 218.245 108.863 218.367 109.507L220.822 122.305C220.987 122.858 220.792 123.277 220.305 123.477L218.547 124.205C216.336 125.126 215.477 126.505 215.807 128.244C216.142 130.005 217.734 130.979 219.646 130.616C221.338 130.295 223.635 128.57 222.998 125.22L220.997 114.686C220.881 114.075 220.972 113.927 221.492 113.709L226.534 111.558C226.91 111.403 227.095 111.058 227.023 110.678Z" fill="black" fill-opacity="0.85"/>
</g>
<g clip-path="url(#clip2_3145_3760)">
<path d="M202.581 19.7391L203.646 15.4634C203.796 14.8608 203.404 14.3523 202.795 14.3216L196.633 14.1395C195.866 14.1174 195.369 14.4163 195.21 15.0531L192.083 27.7037C192.002 28.275 191.649 28.5738 191.124 28.5515L189.222 28.4765C186.829 28.3876 185.471 29.2813 185.043 30.9984C184.61 32.7382 185.649 34.2891 187.537 34.7593C189.208 35.1756 192.016 34.5706 192.84 31.2615L195.431 20.8567C195.581 20.254 195.726 20.1573 196.289 20.1767L201.769 20.3338C202.175 20.3505 202.488 20.1143 202.581 19.7391Z" fill="black" fill-opacity="0.85"/>
</g>
<defs>
<clipPath id="clip0_3145_3760">
<rect width="27.3281" height="23.4023" fill="white" transform="translate(50 74.2651) rotate(-11.1086)"/>
</clipPath>
<clipPath id="clip1_3145_3760">
<rect width="14.6484" height="24.082" fill="white" transform="translate(211.882 107.578) rotate(-10.7555)"/>
</clipPath>
<clipPath id="clip2_3145_3760">
<rect width="14.6484" height="24.082" fill="white" transform="translate(190.127 10.5869) rotate(13.9855)"/>
</clipPath>
</defs>
</svg>
